<?xml version="1.0" encoding="UTF-8"?>
<svg version="1.1" xmlns="http://www.w3.org/2000/svg" width="167" height="171">
<path d="M0 0 C17.82 0 35.64 0 54 0 C54 1.32 54 2.64 54 4 C54.33 3.01 54.66 2.02 55 1 C60.69254239 0.97516009 66.38505276 0.95707398 72.07763672 0.94506836 C74.01156159 0.94005987 75.94548271 0.93325118 77.87939453 0.92456055 C80.6696058 0.91234169 83.45976672 0.90673671 86.25 0.90234375 C87.533302 0.89460182 87.533302 0.89460182 88.8425293 0.88670349 C93.98671273 0.8862298 98.90821979 1.25830419 104 2 C104.495 3.485 104.495 3.485 105 5 C105.66 5 106.32 5 107 5 C108.64338146 10.03285571 109.12148089 14.43437058 109.08203125 19.734375 C109.07782669 20.38380569 109.07362213 21.03323639 109.06929016 21.7023468 C109.05285038 23.80169021 109.02739778 25.90077275 109 28 C108.99208435 28.6998703 108.9841687 29.3997406 108.97601318 30.12081909 C108.9248346 34.41840192 108.84402697 38.71442309 108.73754883 43.01098633 C108.70373289 44.48156712 108.67589067 45.9522956 108.65356445 47.4230957 C108.62009561 49.58860076 108.56794379 51.75294972 108.51171875 53.91796875 C108.48553467 55.18406982 108.45935059 56.4501709 108.43237305 57.75463867 C107.97603162 61.17990492 107.51114421 62.65537633 105 65 C98.67243391 65.83571628 94.9222465 64.46030335 89.625 61.125 C89.01011719 60.76019531 88.39523438 60.39539063 87.76171875 60.01953125 C85.25723039 58.51245401 83.0731237 57.0731237 81 55 C79.64160074 47.13153634 79.87300006 38.95866282 80 31 C79.01 31 78.02 31 77 31 C76.67 38.59 76.34 46.18 76 54 C75.34 54 74.68 54 74 54 C74.80743652 54.41773682 75.61487305 54.83547363 76.44677734 55.26586914 C79.4501056 56.83373543 82.44091452 58.4216204 85.42578125 60.02416992 C86.71729735 60.71214813 88.01319581 61.39196658 89.31347656 62.06323242 C91.18739645 63.03247659 93.04333576 64.03045956 94.8984375 65.03515625 C96.01911621 65.6269165 97.13979492 66.21867676 98.29443359 66.82836914 C101.70907589 69.56914185 102.19609721 71.77395856 103 76 C103.99 74.02 103.99 74.02 105 72 C107.0972725 75.14590876 107.25158764 75.88164011 107.25878906 79.46801758 C107.26509338 80.36937943 107.27139771 81.27074127 107.27789307 82.19941711 C107.2738446 83.17130478 107.26979614 84.14319244 107.265625 85.14453125 C107.26753845 86.14707443 107.2694519 87.14961761 107.27142334 88.18254089 C107.27278495 90.30504609 107.26909023 92.42755961 107.26074219 94.55004883 C107.250076 97.78941743 107.26062108 101.0282272 107.2734375 104.26757812 C107.27211524 106.33073039 107.26955148 108.3938823 107.265625 110.45703125 C107.26967346 111.42284622 107.27372192 112.38866119 107.27789307 113.38374329 C107.24395521 118.2869226 107.06525856 122.45239922 105 127 C101.80610367 130.08414044 98.36165443 131.97301123 94.375 133.875 C90.45778595 135.78595235 86.57667987 137.72574557 82.75 139.8125 C81.85410156 140.29589844 80.95820312 140.77929688 80.03515625 141.27734375 C77.71992592 142.5913934 75.48801042 143.94915562 73.24609375 145.37890625 C65.87533784 149.98607747 59.56952732 153.50691044 50.58203125 152.890625 C43.31263753 151.08318578 37.19187343 147.10158963 31 143 C30.13375 142.43152344 29.2675 141.86304688 28.375 141.27734375 C26.95291944 140.32505766 25.53712863 139.36328714 24.12890625 138.390625 C20.82149145 136.23018524 17.32674121 134.4370248 13.84375 132.578125 C9.95600351 130.42063931 6.23585182 128.03372469 2.5078125 125.61328125 C0.03200068 123.94312422 0.03200068 123.94312422 -2.6953125 122.73046875 C-5.89608613 120.32717601 -6.4076083 117.80768597 -7 114 C-7.21756589 109.35068532 -7.11533178 104.71831123 -7.01171875 100.06640625 C-6.98835689 98.68185882 -6.96590595 97.29729576 -6.94430542 95.91271973 C-6.88399371 92.22298378 -6.81052305 88.53362474 -6.73387527 84.84419632 C-6.65651661 81.03809513 -6.58964965 77.23180767 -6.52124023 73.42553711 C-6.39807252 66.67312975 -6.26346107 59.92100537 -6.124156 53.16891384 C-6.01251495 47.71871512 -5.91590331 42.2683475 -5.82481384 36.81776428 C-5.76078453 33.07236322 -5.68833259 29.327174 -5.61221313 25.58200073 C-5.5792696 23.91239647 -5.54910439 22.2427349 -5.52182007 20.57302856 C-5.483473 18.3100904 -5.43306751 16.04776306 -5.37890625 13.78515625 C-5.3538501 12.55676025 -5.32879395 11.32836426 -5.30297852 10.06274414 C-5.01611684 7.16292169 -4.51851657 5.4511189 -3 3 C-2.34 3 -1.68 3 -1 3 C-0.67 2.01 -0.34 1.02 0 0 Z M103 18 C103 29.55 103 41.1 103 53 C103.33 53 103.66 53 104 53 C104 41.45 104 29.9 104 18 C103.67 18 103.34 18 103 18 Z M85 25 C85 27.64 85 30.28 85 33 C85.33 33 85.66 33 86 33 C86 30.36 86 27.72 86 25 C85.67 25 85.34 25 85 25 Z M18 26 C18 40.19 18 54.38 18 69 C18.33 69 18.66 69 19 69 C19 54.81 19 40.62 19 26 C18.67 26 18.34 26 18 26 Z M71 26 C71 34.91 71 43.82 71 53 C71.66 52.67 72.32 52.34 73 52 C72.67 43.42 72.34 34.84 72 26 C71.67 26 71.34 26 71 26 Z M23 31 C22.85429819 37.45134584 22.71235318 43.90276731 22.57275391 50.35424805 C22.52507154 52.53883642 22.47659764 54.72340769 22.42724609 56.90795898 C22.10335688 71.2747591 21.9317992 85.6295229 22 100 C21.01 100.495 21.01 100.495 20 101 C21.28524261 101.86380259 22.57842419 102.71580369 23.875 103.5625 C24.95394531 104.27599609 24.95394531 104.27599609 26.0546875 105.00390625 C26.69664063 105.33261719 27.33859375 105.66132812 28 106 C28.99 105.505 28.99 105.505 30 105 C29.67 104.67 29.34 104.34 29 104 C28.89768501 101.38494926 28.85936621 98.80253052 28.875 96.1875 C28.87693359 95.42445557 28.87886719 94.66141113 28.88085938 93.87524414 C28.92860793 87.5505506 29.32135203 81.28961242 30 75 C30.66 75 31.32 75 32 75 C32.33 78.63 32.66 82.26 33 86 C33.33 86 33.66 86 34 86 C34 80.72 34 75.44 34 70 C42.88671875 74.39453125 42.88671875 74.39453125 46 76 C46.87462891 76.38220703 47.74925781 76.76441406 48.65039062 77.15820312 C51 79 51 79 51.65942383 82.1862793 C51.67513428 83.46929932 51.69084473 84.75231934 51.70703125 86.07421875 C51.72215256 86.7580513 51.73727386 87.44188385 51.75285339 88.1464386 C51.79578663 90.3271263 51.80457234 92.50643152 51.8125 94.6875 C51.83564043 96.16735461 51.86100484 97.64717623 51.88867188 99.12695312 C51.95157532 102.75127494 51.98386981 106.37513428 52 110 C52.33 110 52.66 110 53 110 C53.33 99.77 53.66 89.54 54 79 C60.875 83 60.875 83 63.03466797 84.265625 C66.30321495 86.31347958 66.30321495 86.31347958 70 87 C70 95.91 70 104.82 70 114 C77.63773654 111.13773654 77.63773654 111.13773654 83 106 C81.02 106.495 81.02 106.495 79 107 C79.33 106.34 79.66 105.68 80 105 C80.0716735 102.44842345 80.09308442 99.92527029 80.0625 97.375 C80.05798828 96.66859375 80.05347656 95.9621875 80.04882812 95.234375 C80.03703875 93.48954725 80.01910324 91.744763 80 90 C76.29306685 87.8933595 72.58420919 85.79013003 68.875 83.6875 C67.82828125 83.09259766 66.7815625 82.49769531 65.703125 81.88476562 C64.68476562 81.30791016 63.66640625 80.73105469 62.6171875 80.13671875 C61.68503418 79.60780029 60.75288086 79.07888184 59.79248047 78.53393555 C57.804416 77.44187321 55.78161521 76.41205956 53.73876953 75.42626953 C51 74 51 74 49.5625 72.04296875 C47.30488379 69.09113556 44.2861605 67.85793819 41 66.3125 C40.3709375 66.00505859 39.741875 65.69761719 39.09375 65.38085938 C36.42485765 64.08882145 33.81570933 62.93856978 31 62 C30.16067705 58.36968042 29.89282305 55.05417937 29.9375 51.33203125 C29.94910156 49.74551758 29.94910156 49.74551758 29.9609375 48.12695312 C29.97382812 47.03318359 29.98671875 45.93941406 30 44.8125 C30.02543371 42.63155921 30.04649244 40.45056159 30.0625 38.26953125 C30.07410156 37.30635986 30.08570313 36.34318848 30.09765625 35.35083008 C30.15990351 32.97838645 30.15990351 32.97838645 29 31 C27.02 31 25.04 31 23 31 Z M33 34 C33 38.95 33 43.9 33 49 C33.33 49 33.66 49 34 49 C34 44.05 34 39.1 34 34 C33.67 34 33.34 34 33 34 Z M84 39 C84 40.65 84 42.3 84 44 C84.33 44 84.66 44 85 44 C85 42.35 85 40.7 85 39 C84.67 39 84.34 39 84 39 Z M-2 43 C-2 51.58 -2 60.16 -2 69 C-1.67 69 -1.34 69 -1 69 C-1 60.42 -1 51.84 -1 43 C-1.33 43 -1.66 43 -2 43 Z M-2 71 C-2 78.59 -2 86.18 -2 94 C-1.67 94 -1.34 94 -1 94 C-1 86.41 -1 78.82 -1 71 C-1.33 71 -1.66 71 -2 71 Z M18 71 C18 75.95 18 80.9 18 86 C18.33 86 18.66 86 19 86 C19 81.05 19 76.1 19 71 C18.67 71 18.34 71 18 71 Z M17 92 C17 94.31 17 96.62 17 99 C17.33 99 17.66 99 18 99 C18 96.69 18 94.38 18 92 C17.67 92 17.34 92 17 92 Z M32 92 C32 96.62 32 101.24 32 106 C31.01 106.495 31.01 106.495 30 107 C30.99 107.33 31.98 107.66 33 108 C33 102.72 33 97.44 33 92 C32.67 92 32.34 92 32 92 Z M83 93 C83 97.29 83 101.58 83 106 C83.33 106 83.66 106 84 106 C84 101.71 84 97.42 84 93 C83.67 93 83.34 93 83 93 Z M-3 100 C-3 102.97 -3 105.94 -3 109 C-2.67 109 -2.34 109 -2 109 C-2 106.03 -2 103.06 -2 100 C-2.33 100 -2.66 100 -3 100 Z M51 125 C51 129.29 51 133.58 51 138 C51.33 138 51.66 138 52 138 C52 133.71 52 129.42 52 125 C51.67 125 51.34 125 51 125 Z " fill="#FAFAFA" transform="translate(36,19)"/>
<path d="M0 0 C17.82 0 35.64 0 54 0 C53.34 19.47 52.68 38.94 52 59 C39.41709111 54.80569704 39.41709111 54.80569704 35 50 C33.63618539 44.63887566 33.95379252 39.51817617 34.3125 34.0625 C34.36774209 32.60109574 34.41792105 31.1394908 34.46289062 29.67773438 C34.57420882 26.10948013 34.7887897 22.56924078 35 19 C29.39 18.67 23.78 18.34 18 18 C18 44.73 18 71.46 18 99 C21.63 100.98 25.26 102.96 29 105 C28.505 104.505 28.505 104.505 28 104 C27.89768278 101.38489231 27.85853185 98.80258592 27.875 96.1875 C27.87910889 95.42300537 27.88321777 94.65851074 27.88745117 93.87084961 C28.03018334 79.21240978 28.03018334 79.21240978 29 75 C30.485 74.01 30.485 74.01 32 73 C32.33 73.66 32.66 74.32 33 75 C33.33 73.35 33.66 71.7 34 70 C40.52673912 71.02736058 46.13378891 73.48649062 51 78 C52.6529222 82.69258808 52.40692878 87.10059742 52.171875 92.02734375 C52.14946209 93.38489749 52.13239528 94.74254904 52.12042236 96.10023499 C52.0748312 99.65558039 51.95721945 103.20493875 51.82397461 106.75793457 C51.70068395 110.39053314 51.64630226 114.02411067 51.5859375 117.65820312 C51.45765769 124.77456946 51.25317672 131.88689186 51 139 C47.63143898 138.22767226 45.12059246 137.06069702 42.1328125 135.296875 C40.69542725 134.45322388 40.69542725 134.45322388 39.22900391 133.5925293 C37.69252197 132.68047729 37.69252197 132.68047729 36.125 131.75 C35.07103027 131.12971924 34.01706055 130.50943848 32.93115234 129.87036133 C29.61770889 127.91870509 26.30854219 125.95995162 23 124 C20.8647247 122.73804202 18.72931187 121.47631672 16.59375 120.21484375 C13.65517901 118.47895118 10.7171704 116.74217226 7.78173828 115.00097656 C6.91790527 114.48889648 6.05407227 113.97681641 5.1640625 113.44921875 C4.02638428 112.77379028 4.02638428 112.77379028 2.86572266 112.0847168 C1.60007617 111.34887967 0.30944792 110.65472396 -1 110 C-1.12374631 82.47310885 -0.97891437 54.95997523 -0.5 27.4375 C-0.48804218 26.75001804 -0.47608437 26.06253609 -0.46376419 25.35422134 C-0.31612721 16.90267606 -0.15908411 8.45134338 0 0 Z M32 92 C32 96.62 32 101.24 32 106 C31.01 106.495 31.01 106.495 30 107 C30.99 107.33 31.98 107.66 33 108 C33 102.72 33 97.44 33 92 C32.67 92 32.34 92 32 92 Z " fill="#FAFAFA" transform="translate(36,19)"/>
<path d="M0 0 C0.66 0 1.32 0 2 0 C2.6744171 19.34106282 3.17341461 38.64426201 3 58 C2.67 58 2.34 58 2 58 C1.97480315 62.40673482 1.95691201 66.81342867 1.94506836 71.22021484 C1.94011786 72.71143323 1.93335574 74.20264699 1.92456055 75.69384766 C1.89527072 80.7971694 1.92301874 85.89719195 2 91 C2.0078653 91.75163422 2.01573059 92.50326843 2.02383423 93.27767944 C2.05688326 95.48236074 2.12457141 97.68323932 2.203125 99.88671875 C2.23954102 101.17537842 2.27595703 102.46403809 2.31347656 103.79174805 C2.69938406 107.13632989 2.69938406 107.13632989 5.29077148 109.046875 C7.82081719 110.31667429 10.31196231 111.12876198 13 112 C14.36089977 112.96214842 15.69598583 113.96205741 17 115 C18.36025289 115.79656833 19.73618497 116.5668447 21.125 117.3125 C24.4251803 119.11357879 27.66290378 120.9836453 30.875 122.9375 C34.46585842 125.11666369 38.10570726 127.14970239 41.8125 129.125 C45.52475438 131.12309726 48.84338656 133.16993278 52 136 C52.66 135.67 53.32 135.34 54 135 C54 115.53 54 96.06 54 76 C54.33 76 54.66 76 55 76 C55.80644761 96.6780888 56.13951531 117.30665968 56 138 C64.55851773 133.51948886 73.08798264 129.00111063 81.5 124.25 C82.16491455 123.87496338 82.8298291 123.49992676 83.51489258 123.11352539 C86.29323844 121.54291303 89.06447661 119.96254471 91.82421875 118.359375 C92.60410156 117.91078125 93.38398437 117.4621875 94.1875 117 C94.82042969 116.62875 95.45335937 116.2575 96.10546875 115.875 C98 115 98 115 103 114 C103.33 104.76 103.66 95.52 104 86 C104.33 86 104.66 86 105 86 C105.07347656 84.66195312 105.07347656 84.66195312 105.1484375 83.296875 C105.22320312 82.12640625 105.29796875 80.9559375 105.375 79.75 C105.44460937 78.58984375 105.51421875 77.4296875 105.5859375 76.234375 C105.96248308 73.29305666 106.4774123 71.50050989 108 69 C110.0972725 72.14590876 110.25158764 72.88164011 110.25878906 76.46801758 C110.26509338 77.36937943 110.27139771 78.27074127 110.27789307 79.19941711 C110.2738446 80.17130478 110.26979614 81.14319244 110.265625 82.14453125 C110.26753845 83.14707443 110.2694519 84.14961761 110.27142334 85.18254089 C110.27278495 87.30504609 110.26909023 89.42755961 110.26074219 91.55004883 C110.250076 94.78941743 110.26062108 98.0282272 110.2734375 101.26757812 C110.27211524 103.33073039 110.26955148 105.3938823 110.265625 107.45703125 C110.26967346 108.42284622 110.27372192 109.38866119 110.27789307 110.38374329 C110.24395521 115.2869226 110.06525856 119.45239922 108 124 C104.80610367 127.08414044 101.36165443 128.97301123 97.375 130.875 C93.45778595 132.78595235 89.57667987 134.72574557 85.75 136.8125 C84.85410156 137.29589844 83.95820312 137.77929688 83.03515625 138.27734375 C80.71992592 139.5913934 78.48801042 140.94915562 76.24609375 142.37890625 C68.87533784 146.98607747 62.56952732 150.50691044 53.58203125 149.890625 C46.31263753 148.08318578 40.19187343 144.10158963 34 140 C33.13375 139.43152344 32.2675 138.86304688 31.375 138.27734375 C29.95291944 137.32505766 28.53712863 136.36328714 27.12890625 135.390625 C23.82149145 133.23018524 20.32674121 131.4370248 16.84375 129.578125 C12.95600351 127.42063931 9.23585182 125.03372469 5.5078125 122.61328125 C3.03200068 120.94312422 3.03200068 120.94312422 0.3046875 119.73046875 C-2.89608613 117.32717601 -3.4076083 114.80768597 -4 111 C-4.21756589 106.35068532 -4.11533178 101.71831123 -4.01171875 97.06640625 C-3.98835689 95.68185882 -3.96590595 94.29729576 -3.94430542 92.91271973 C-3.88399371 89.22298378 -3.81052305 85.53362474 -3.73387527 81.84419632 C-3.65651661 78.03809513 -3.58964965 74.23180767 -3.52124023 70.42553711 C-3.39807252 63.67312975 -3.26346107 56.92100537 -3.124156 50.16891384 C-3.01251495 44.71871512 -2.91590331 39.2683475 -2.82481384 33.81776428 C-2.76078453 30.07236322 -2.68833259 26.327174 -2.61221313 22.58200073 C-2.5792696 20.91239647 -2.54910439 19.2427349 -2.52182007 17.57302856 C-2.483473 15.3100904 -2.43306751 13.04776306 -2.37890625 10.78515625 C-2.3538501 9.55676025 -2.32879395 8.32836426 -2.30297852 7.06274414 C-2.01611684 4.16292169 -1.51851657 2.4511189 0 0 Z M0 97 C0 99.97 0 102.94 0 106 C0.33 106 0.66 106 1 106 C1 103.03 1 100.06 1 97 C0.67 97 0.34 97 0 97 Z " fill="#050505" transform="translate(33,22)"/>
<path d="M0 0 C0.33 0 0.66 0 1 0 C0.97335266 0.71108414 0.94670532 1.42216827 0.91925049 2.15480042 C0.67816749 8.87718595 0.49581059 15.59835633 0.37825394 22.32409763 C0.31577461 25.78183284 0.23117905 29.23598092 0.09472656 32.69165039 C-0.0613811 36.67028791 -0.11895645 40.64750714 -0.171875 44.62890625 C-0.23381042 45.86145645 -0.29574585 47.09400665 -0.35955811 48.36390686 C-0.36235624 51.94712132 -0.23434357 54.6313215 1 58 C4.63457631 61.24452231 8.56154544 63.0707827 13 65 C14.96715769 66.04607184 16.9270212 67.10613315 18.875 68.1875 C19.76703125 68.66960937 20.6590625 69.15171875 21.578125 69.6484375 C28.52554745 73.52554745 28.52554745 73.52554745 31 76 C31.08758003 77.99964982 31.10696576 80.0023611 31.09765625 82.00390625 C31.09282227 83.82631836 31.09282227 83.82631836 31.08789062 85.68554688 C31.07532227 87.60463867 31.07532227 87.60463867 31.0625 89.5625 C31.05798828 90.84576172 31.05347656 92.12902344 31.04882812 93.45117188 C31.03699545 96.63416022 31.02051068 99.81705762 31 103 C29.02 103 27.04 103 25 103 C25 97.39 25 91.78 25 86 C23.32550781 85.09636719 21.65101562 84.19273438 19.92578125 83.26171875 C17.72132172 82.07037254 15.51689643 80.87896297 13.3125 79.6875 C12.20970703 79.09259766 11.10691406 78.49769531 9.97070312 77.88476562 C8.90400391 77.30791016 7.83730469 76.73105469 6.73828125 76.13671875 C5.26935425 75.34334106 5.26935425 75.34334106 3.77075195 74.53393555 C2.39922974 73.77463745 2.39922974 73.77463745 1 73 C-0.35315308 72.25327026 -0.35315308 72.25327026 -1.73364258 71.49145508 C-4 70 -4 70 -6 67 C-8.88345114 65.44264732 -11.79351969 64.05864303 -14.76953125 62.69335938 C-18.50691491 60.91948489 -21.35865138 59.20917477 -24 56 C-25.07917226 52.76248322 -25.11425601 50.42248229 -25.09765625 47.01953125 C-25.09443359 45.85615234 -25.09121094 44.69277344 -25.08789062 43.49414062 C-25.07951172 42.27919922 -25.07113281 41.06425781 -25.0625 39.8125 C-25.05573242 37.97268555 -25.05573242 37.97268555 -25.04882812 36.09570312 C-25.03703065 33.06375332 -25.02056921 30.03190094 -25 27 C-26.98 27 -28.96 27 -31 27 C-30.99777939 27.55471481 -30.99555878 28.10942963 -30.99327087 28.68095398 C-30.97076098 34.57204529 -30.95590799 40.46312398 -30.94506836 46.35424805 C-30.94010814 48.53882342 -30.93333788 50.72339561 -30.92456055 52.90795898 C-30.86825293 67.30614732 -31.15955554 81.62527302 -32 96 C-33.32 95.67 -34.64 95.34 -36 95 C-37.18107421 88.4979617 -37.12737969 82.09818888 -37.09765625 75.50390625 C-37.0962413 74.31522446 -37.09482635 73.12654266 -37.09336853 71.90184021 C-37.08779114 68.12203406 -37.07524275 64.34228811 -37.0625 60.5625 C-37.05748208 57.9928394 -37.05291968 55.42317787 -37.04882812 52.85351562 C-37.03782911 46.56899003 -37.0211135 40.28449932 -37 34 C-36.67 34 -36.34 34 -36 34 C-36 27.4 -36 20.8 -36 14 C-30.06 14 -24.12 14 -18 14 C-18.33 14.66 -18.66 15.32 -19 16 C-19.01644664 18.32581297 -18.9639422 20.6522464 -18.87890625 22.9765625 C-18.85529526 23.66181 -18.83168427 24.3470575 -18.80735779 25.05307007 C-18.73072143 27.24392416 -18.64669754 29.43442472 -18.5625 31.625 C-18.50927924 33.10935764 -18.45653884 34.59373259 -18.40429688 36.078125 C-18.2751067 39.71896737 -18.13928926 43.35952844 -18 47 C-17.21625 47.20625 -16.4325 47.4125 -15.625 47.625 C-12 49 -12 49 -2 55 C-2 46.75 -2 38.5 -2 30 C-1.67 30 -1.34 30 -1 30 C-0.67 20.1 -0.34 10.2 0 0 Z M-21 30 C-21 34.95 -21 39.9 -21 45 C-20.67 45 -20.34 45 -20 45 C-20 40.05 -20 35.1 -20 30 C-20.33 30 -20.66 30 -21 30 Z M-36 67 C-36 71.95 -36 76.9 -36 82 C-35.67 82 -35.34 82 -35 82 C-35 77.05 -35 72.1 -35 67 C-35.33 67 -35.66 67 -36 67 Z M29 89 C29 93.29 29 97.58 29 102 C29.33 102 29.66 102 30 102 C30 97.71 30 93.42 30 89 C29.67 89 29.34 89 29 89 Z " fill="#090909" transform="translate(90,23)"/>
<path d="M0 0 C1.32 0.33 2.64 0.66 4 1 C5.64338146 6.03285571 6.12148089 10.43437058 6.08203125 15.734375 C6.07782669 16.38380569 6.07362213 17.03323639 6.06929016 17.7023468 C6.05285038 19.80169021 6.02739778 21.90077275 6 24 C5.99208435 24.6998703 5.9841687 25.3997406 5.97601318 26.12081909 C5.9248346 30.41840192 5.84402697 34.71442309 5.73754883 39.01098633 C5.70373289 40.48156712 5.67589067 41.9522956 5.65356445 43.4230957 C5.62009561 45.58860076 5.56794379 47.75294972 5.51171875 49.91796875 C5.48553467 51.18406982 5.45935059 52.4501709 5.43237305 53.75463867 C4.97603162 57.17990492 4.51114421 58.65537633 2 61 C-4.32756609 61.83571628 -8.0777535 60.46030335 -13.375 57.125 C-13.98988281 56.76019531 -14.60476562 56.39539063 -15.23828125 56.01953125 C-17.74276961 54.51245401 -19.9268763 53.0731237 -22 51 C-23.35839926 43.13153634 -23.12699994 34.95866282 -23 27 C-23.99 27 -24.98 27 -26 27 C-26.33 34.59 -26.66 42.18 -27 50 C-28.32 49.34 -29.64 48.68 -31 48 C-31.33 37.11 -31.66 26.22 -32 15 C-29.25494537 13.62747269 -26.99672588 13.86770745 -23.9375 13.875 C-22.85339844 13.87242188 -21.76929687 13.86984375 -20.65234375 13.8671875 C-18 14 -18 14 -17 15 C-16.95184331 17.08277668 -16.96329498 19.16699003 -17 21.25 C-17.05721984 28.2165153 -16.64496812 35.06659268 -16 42 C-14.205625 42.61875 -14.205625 42.61875 -12.375 43.25 C-8.23705386 44.67687798 -5.9200455 46.38663633 -2 49 C-1.67 42.73 -1.34 36.46 -1 30 C-0.67 30 -0.34 30 0 30 C0 20.1 0 10.2 0 0 Z M-19 35 C-19 36.65 -19 38.3 -19 40 C-18.67 40 -18.34 40 -18 40 C-18 38.35 -18 36.7 -18 35 C-18.33 35 -18.66 35 -19 35 Z " fill="#030303" transform="translate(139,23)"/>
<path d="M0 0 C4.34943716 4.34943716 3.05354532 13.24434665 3.09765625 19.10546875 C3.09113738 21.13283589 3.07940506 23.16019286 3.0625 25.1875 C3.05798828 26.23486328 3.05347656 27.28222656 3.04882812 28.36132812 C3.03720124 30.90761536 3.02086281 33.4537746 3 36 C2.01 36 1.02 36 0 36 C0.33 35.01 0.66 34.02 1 33 C-0.32 32.34 -1.64 31.68 -3 31 C-3.23835703 8.64740709 -3.23835703 8.64740709 -2 2 C-1.34 1.34 -0.68 0.68 0 0 Z " fill="#070707" transform="translate(67,92)"/>
<path d="M0 0 C1.485 0.99 1.485 0.99 3 2 C3.34057617 3.87939453 3.34057617 3.87939453 3.29296875 6.1328125 C3.28330078 6.93847656 3.27363281 7.74414062 3.26367188 8.57421875 C3.23853516 9.41597656 3.21339844 10.25773437 3.1875 11.125 C3.17396484 11.97449219 3.16042969 12.82398437 3.14648438 13.69921875 C3.11108219 15.79974837 3.05727401 17.89995293 3 20 C1.02 20.99 1.02 20.99 -1 22 C-1.02700675 19.08327116 -1.04684237 16.16679323 -1.0625 13.25 C-1.07087891 12.425 -1.07925781 11.6 -1.08789062 10.75 C-1.09111328 9.95078125 -1.09433594 9.1515625 -1.09765625 8.328125 C-1.10289307 7.5949707 -1.10812988 6.86181641 -1.11352539 6.10644531 C-0.9975109 3.9538151 -0.59073271 2.0685865 0 0 Z " fill="#000000" transform="translate(108,109)"/>
</svg>
